<svg width="81" height="18" viewBox="0 0 81 18" fill="none" xmlns="http://www.w3.org/2000/svg">
<path fill-rule="evenodd" clip-rule="evenodd" d="M4.23348 10.2993L3.45457 11.7655V16.6909H0.93457V0.654542H3.45457V7.64181L6.75348 0.654542H9.27348L5.76839 7.80218L9.27348 16.6909H6.68475L4.23348 10.2993ZM12.8309 13.0025C12.8309 13.5829 12.9492 13.9914 13.186 14.2282C13.4227 14.4649 13.7396 14.5833 14.1367 14.5833C14.5338 14.5833 14.8507 14.4649 15.0874 14.2282C15.3241 13.9914 15.4425 13.5829 15.4425 13.0025V4.3429C15.4425 3.76254 15.3241 3.354 15.0874 3.11727C14.8507 2.88054 14.5338 2.76218 14.1367 2.76218C13.7396 2.76218 13.4227 2.88054 13.186 3.11727C12.9492 3.354 12.8309 3.76254 12.8309 4.3429V13.0025ZM10.311 4.50327C10.311 3.20508 10.6394 2.20854 11.2961 1.51363C11.9528 0.818719 12.8997 0.471268 14.1368 0.471268C15.3739 0.471268 16.3208 0.818719 16.9775 1.51363C17.6343 2.20854 17.9626 3.20508 17.9626 4.50327V12.8422C17.9626 14.1404 17.6343 15.1369 16.9775 15.8318C16.3208 16.5267 15.3739 16.8742 14.1368 16.8742C12.8997 16.8742 11.9528 16.5267 11.2961 15.8318C10.6394 15.1369 10.311 14.1404 10.311 12.8422V4.50327ZM22.0926 5.076V16.6909H19.8246V0.654542H22.9861L25.5748 10.2535V0.654542H27.8199V16.6909H25.2312L22.0926 5.076ZM29.5678 4.50327C29.5678 3.20508 29.8771 2.20854 30.4956 1.51363C31.1142 0.818719 32.042 0.471268 33.2791 0.471268C34.5162 0.471268 35.444 0.818719 36.0625 1.51363C36.6811 2.20854 36.9904 3.20508 36.9904 4.50327V5.00727H34.6078V4.3429C34.6078 3.76254 34.4971 3.354 34.2756 3.11727C34.0542 2.88054 33.7449 2.76218 33.3478 2.76218C32.9507 2.76218 32.6414 2.88054 32.42 3.11727C32.1985 3.354 32.0878 3.76254 32.0878 4.3429C32.0878 4.89272 32.21 5.37763 32.4543 5.79763C32.6987 6.21763 33.0042 6.61472 33.3707 6.9889C33.7373 7.36309 34.1305 7.73727 34.5505 8.11145C34.9705 8.48563 35.3638 8.89417 35.7304 9.33709C36.0969 9.78 36.4024 10.284 36.6467 10.8491C36.8911 11.4142 37.0133 12.0785 37.0133 12.8422C37.0133 14.1404 36.6964 15.1369 36.0625 15.8318C35.4287 16.5267 34.4933 16.8742 33.2562 16.8742C32.0191 16.8742 31.0836 16.5267 30.4498 15.8318C29.816 15.1369 29.4991 14.1404 29.4991 12.8422V11.8571H31.8816V13.0025C31.8816 13.5829 32 13.9876 32.2367 14.2167C32.4734 14.4458 32.7903 14.5604 33.1874 14.5604C33.5845 14.5604 33.9014 14.4458 34.1382 14.2167C34.3749 13.9876 34.4933 13.5829 34.4933 13.0025C34.4933 12.4527 34.3711 11.9678 34.1267 11.5478C33.8824 11.1278 33.5769 10.7307 33.2104 10.3565C32.8438 9.98236 32.4505 9.60818 32.0305 9.23399C31.6105 8.85981 31.2173 8.45127 30.8507 8.00836C30.4842 7.56545 30.1787 7.06145 29.9343 6.49636C29.69 5.93126 29.5678 5.26691 29.5678 4.50327ZM37.9817 0.654542H45.7708V2.94545H43.1362V16.6909H40.6163V2.94545H37.9817V0.654542ZM52.3983 16.6909C52.3677 16.584 52.3372 16.4847 52.3066 16.3931C52.2761 16.3014 52.2494 16.1869 52.2264 16.0495C52.2035 15.912 52.1883 15.7364 52.1806 15.5225C52.173 15.3087 52.1692 15.0415 52.1692 14.7207V12.2007C52.1692 11.4524 52.0394 10.9255 51.7797 10.62C51.5201 10.3145 51.1001 10.1618 50.5197 10.1618H49.6492V16.6909H47.1292V0.654542H50.9321C52.2455 0.654542 53.1963 0.959994 53.7843 1.57091C54.3723 2.18182 54.6663 3.10581 54.6663 4.34291V5.60291C54.6663 7.25237 54.1165 8.33672 53.0168 8.856C53.6583 9.11563 54.0974 9.53945 54.3341 10.1275C54.5708 10.7155 54.6892 11.4294 54.6892 12.2695V14.7436C54.6892 15.1407 54.7044 15.4882 54.735 15.786C54.7655 16.0838 54.8419 16.3854 54.9641 16.6909H52.3983ZM49.6491 2.94545V7.87091H50.6342C51.1076 7.87091 51.478 7.74873 51.7452 7.50436C52.0125 7.26 52.1462 6.81709 52.1462 6.17563V4.59491C52.1462 4.01454 52.0431 3.59454 51.8369 3.33491C51.6307 3.07527 51.3062 2.94545 50.8632 2.94545H49.6491ZM59.0026 0.654542V13.0255C59.0026 13.6058 59.1209 14.0105 59.3577 14.2396C59.5944 14.4687 59.9113 14.5833 60.3084 14.5833C60.7055 14.5833 61.0224 14.4687 61.2591 14.2396C61.4958 14.0105 61.6142 13.6058 61.6142 13.0255V0.654542H63.9968V12.8651C63.9968 14.1633 63.6799 15.1598 63.046 15.8547C62.4122 16.5496 61.4768 16.8971 60.2397 16.8971C59.0026 16.8971 58.0671 16.5496 57.4333 15.8547C56.7995 15.1598 56.4826 14.1633 56.4826 12.8651V0.654542H59.0026ZM72.8593 0.654542H80.6484V2.94545H78.0138V16.6909H75.4938V2.94545H72.8593V0.654542Z" fill="#171819"/>
<path fill-rule="evenodd" clip-rule="evenodd" d="M65.1938 8.98838L71.7393 0.806564V17.1702L65.1938 8.98838Z" fill="#00A4E5"/>
</svg>
